<svg width="60" height="51" viewBox="0 0 60 51" fill="none" xmlns="http://www.w3.org/2000/svg">
<path fill-rule="evenodd" clip-rule="evenodd" d="M42.2819 0.778628C41.8633 1.23873 42.6666 2.63567 44.0717 3.89926C45.1287 4.8528 46.39 5.27955 47.0064 5.36623C47.8857 6.04637 48.6826 6.76652 49.4016 7.52333L49.4786 7.61335C48.9629 7.32997 47.6421 6.91989 46.1692 7.09992C44.2924 7.32663 42.8306 8.0101 42.9039 8.62689C42.9781 9.24369 44.5636 9.55704 46.4404 9.33035C48.1871 9.12033 49.529 8.15346 49.6893 7.86008L50.553 8.85361C50.7032 9.04031 50.847 9.23035 50.9872 9.42368L51.3792 9.97719C51.7676 10.5506 52.122 11.134 52.4399 11.7342C52.0149 11.3308 50.8406 10.5973 49.3714 10.3906C47.4983 10.1305 45.9082 10.4172 45.8212 11.0307C45.7342 11.6441 47.1869 12.3543 49.06 12.6144C50.8168 12.8578 52.373 12.2576 52.5837 12.0176C53.3027 13.4279 53.8285 14.9048 54.1793 16.4152C53.8349 15.8984 52.9079 14.9516 51.5999 14.4047C49.8532 13.6779 48.2439 13.5512 48.003 14.1247C47.7621 14.6981 48.9831 15.7483 50.7298 16.4752C52.319 17.1353 53.9319 16.9786 54.2663 16.8053C54.5411 18.1188 54.6849 19.4558 54.7078 20.8027C54.7078 22.403 54.5475 24.0034 54.2599 25.5637L53.9952 26.5239C53.9686 25.9305 53.6407 24.6035 52.7403 23.45C51.5834 21.9596 50.2416 21.0594 49.7497 21.4395C49.2578 21.8196 49.8001 23.3366 50.9578 24.8268C52.0478 26.2271 53.5876 26.8806 53.9017 26.8506L53.1085 29.7245C52.3025 31.9216 51.2555 34.0087 49.9201 35.9225C50.1207 35.4824 50.3652 33.9954 49.8898 32.4585C49.3311 30.6581 48.3941 29.3445 47.8024 29.5279C47.207 29.7112 47.1805 31.3215 47.7392 33.1219C48.2979 34.9223 49.6361 36.1125 49.8266 36.0525C49.8303 36.0525 49.8331 36.0492 49.8331 36.0492C49.5958 36.3826 49.3513 36.7126 49.0975 37.036L46.946 39.3598C47.1896 38.7164 47.4305 37.6228 47.2803 36.4359C47.0458 34.5655 46.3534 33.1119 45.7342 33.1886C45.1186 33.2652 44.8081 34.8456 45.0454 36.716C45.2496 38.323 46.0923 39.5832 46.4541 39.89L46.1793 40.1866L43.0944 42.7139C43.4599 42.1337 43.9215 41.0802 43.9948 39.8499C44.1083 37.9696 43.6971 36.4125 43.0742 36.3759C42.4523 36.3392 41.8606 37.8362 41.7461 39.7166C41.649 41.3302 42.248 42.7205 42.5457 43.094C41.3486 43.8708 40.0965 44.5009 38.7784 45.021C39.24 44.5009 39.8263 43.6174 40.1239 42.5238C40.6158 40.7034 40.5288 39.0965 39.9298 38.9365C39.3271 38.7763 38.4441 40.12 37.9486 41.9403C37.5538 43.4006 37.7947 44.791 38.0026 45.3143C37.7681 45.3977 37.5309 45.4777 37.29 45.5578L33.9944 46.3245C34.5531 45.9145 35.2785 45.2043 35.7942 44.2475C36.6845 42.5838 36.9648 41.0002 36.4162 40.7068C35.8675 40.4133 34.6997 41.527 33.8103 43.1906C33.0775 44.5542 33.0106 46.0012 33.1077 46.528L30.5211 47.0214C30.4606 47.0381 30.4038 47.0547 30.3443 47.0747C30.2839 47.0547 30.2271 47.0381 30.1666 47.0214L27.58 46.528C27.677 46.0012 27.6102 44.5542 26.8774 43.1906C25.988 41.527 24.8202 40.4167 24.2715 40.7068C23.7229 41.0002 24.0004 42.5838 24.8935 44.2475C25.4055 45.2043 26.1318 45.9112 26.6933 46.3245L23.3977 45.5578C23.1568 45.481 22.9196 45.3977 22.6851 45.3143C22.8958 44.7943 23.1339 43.4006 22.7391 41.9403C22.2473 40.12 21.3606 38.7763 20.7579 38.9365C20.1561 39.0965 20.0691 40.7034 20.5637 42.5238C20.8614 43.6207 21.4476 44.5042 21.9093 45.021C20.5912 44.5009 19.3391 43.8708 18.142 43.094C18.4396 42.7205 19.0387 41.3302 18.9416 39.7166C18.828 37.8362 18.2317 36.3392 17.6135 36.3759C16.9906 36.4125 16.5793 37.9696 16.6929 39.8499C16.7662 41.0802 17.2251 42.1337 17.5933 42.7139L14.5084 40.1866L14.2336 39.89C14.5954 39.5799 15.4417 38.3197 15.6423 36.716C15.8768 34.8456 15.569 33.2652 14.9535 33.1886C14.3371 33.1119 13.6446 34.5655 13.4074 36.4359C13.2572 37.6228 13.4981 38.7164 13.7417 39.3598L11.5901 37.036C11.3364 36.7126 11.0891 36.3859 10.8546 36.0492C10.8574 36.0492 10.861 36.0525 10.861 36.0525C11.0516 36.1125 12.3898 34.9223 12.9494 33.1219C13.5082 31.3215 13.4779 29.7112 12.8853 29.5279C12.2899 29.3445 11.3566 30.6581 10.7978 32.4585C10.3188 33.9954 10.5634 35.4824 10.7676 35.9225C9.43215 34.0121 8.38522 31.9216 7.57918 29.7245L6.78596 26.8506C7.10013 26.8773 8.6426 26.2271 9.72984 24.8268C10.8876 23.3366 11.4298 21.8196 10.938 21.4395C10.4461 21.0594 9.1079 21.9596 7.94738 23.45C7.047 24.6035 6.71909 25.9305 6.69253 26.5239L6.42782 25.5637C6.14021 24.0034 5.97992 22.3997 5.97992 20.7994C6.00007 19.4525 6.14387 18.1122 6.4214 16.8019C6.75573 16.9753 8.36873 17.132 9.95791 16.4719C11.7046 15.745 12.9256 14.6914 12.6847 14.1213C12.4438 13.5479 10.8345 13.6746 9.08776 14.4014C7.77611 14.9482 6.85282 15.8951 6.50842 16.4119C6.85648 14.8982 7.38499 13.4246 8.10402 12.0143C8.31468 12.2543 9.87455 12.8544 11.6277 12.611C13.5008 12.351 14.9499 11.6408 14.8665 11.0274C14.7795 10.4139 13.1903 10.1272 11.3163 10.3873C9.84708 10.5906 8.67282 11.3241 8.24782 11.7309C8.56565 11.134 8.91739 10.5473 9.3085 9.9738L9.70052 9.42039C9.84066 9.23035 9.98446 9.04031 10.1347 8.85028L10.9984 7.85674C11.1587 8.15013 12.5006 9.11699 14.2473 9.32705C16.1241 9.55375 17.7096 9.24035 17.7838 8.62356C17.8571 8.00677 16.3952 7.32663 14.5184 7.09658C13.0456 6.91989 11.7248 7.32997 11.2091 7.61002L11.286 7.52C12.0051 6.76318 12.8019 6.04303 13.6813 5.3629C14.2977 5.27288 15.5553 4.84613 16.616 3.89593C18.0211 2.63234 18.8207 1.23539 18.4057 0.775294C17.9881 0.3152 16.5125 0.965332 15.1074 2.22893C13.7051 3.48918 13.183 5.1962 13.3167 5.34956L12.42 6.21307L12.3934 6.24308C11.9556 6.62315 11.4234 7.09325 10.9279 7.6467C10.436 8.19681 9.86722 8.98031 9.35887 9.73382L9.21507 9.89714C7.70649 11.9109 6.64582 14.3214 6.20708 16.7986C5.93321 18.3555 5.80589 19.9459 5.82238 21.5329C5.74177 20.9661 5.26364 19.6525 4.20938 18.5822C2.88491 17.2387 1.44962 16.4985 1.00446 16.9352C0.559309 17.3687 1.27557 18.8123 2.60371 20.1559C3.92909 21.4995 5.66483 21.9429 5.80864 21.8029C5.81597 21.7962 5.82237 21.7829 5.82604 21.7663C5.85901 23.3132 6.02938 24.8602 6.3408 26.3739C6.05319 25.7737 5.35432 24.7668 4.25609 24.0367C2.68431 22.9898 1.1281 22.5564 0.783706 23.0698C0.439307 23.5866 1.43312 24.8536 3.0049 25.9004C4.50706 26.9039 6.21074 27.024 6.45439 26.8873C6.51484 27.1507 6.57895 27.414 6.64856 27.6742L7.98677 31.3615C7.64603 30.8414 6.72917 29.8879 5.4276 29.3278C3.68729 28.5843 2.07795 28.4443 1.83431 29.0144C1.58975 29.5845 2.80156 30.6481 4.54095 31.3916C6.22356 32.1117 7.94373 31.9017 8.12051 31.7216L10.0577 35.5058C10.0614 35.509 10.0614 35.5123 10.0651 35.5157C9.52283 35.0789 8.63618 34.5456 7.55902 34.2955C5.71521 33.8654 4.10953 34.0054 3.96573 34.6089C3.82467 35.2123 5.20318 36.0492 7.04334 36.4792C8.67007 36.8594 10.1887 36.4759 10.5533 36.2458C11.4097 37.4728 12.387 38.6197 13.434 39.6899C12.8551 39.3265 11.788 38.8664 10.5395 38.7997C8.64992 38.6964 7.09005 39.1131 7.05708 39.7332C7.02319 40.3534 8.52536 40.9368 10.4159 41.0435C12.2066 41.1435 13.7216 40.3967 13.8855 40.1466C13.9963 40.2567 14.1063 40.3633 14.2208 40.47L17.2214 43.0072C16.5693 42.7705 15.4884 42.5471 14.3142 42.6972C12.4374 42.9406 10.9819 43.6374 11.0616 44.2508C11.1422 44.8643 12.7278 45.1677 14.6055 44.9243C16.3046 44.7042 17.6162 43.7708 17.8269 43.4473C19.035 44.2608 20.3164 44.9343 21.6482 45.4944C20.9585 45.4044 19.8914 45.4178 18.8143 45.7878C17.0272 46.4046 15.7431 47.3782 15.9437 47.9649C16.1479 48.5517 17.76 48.525 19.5507 47.9082C21.193 47.3414 22.294 46.1379 22.4112 45.8012C23.3473 46.1612 24.3109 46.468 25.2919 46.728C25.6061 46.8114 25.9202 46.8814 26.239 46.9447C25.5758 47.058 24.7295 47.3148 23.9299 47.8149C22.327 48.8184 21.2965 50.0553 21.6281 50.5788C21.9597 51.1023 23.525 50.7154 25.1279 49.7153C26.4524 48.8851 27.2355 47.6515 27.4059 47.1548C28.0214 47.2615 28.6305 47.3748 29.2259 47.5348C28.8485 47.7515 28.4968 48.0149 28.2055 48.325L27.6303 49.0851C27.5131 49.3352 27.6203 49.632 27.8712 49.752C28.1222 49.8686 28.4199 49.7619 28.5408 49.5119C28.7515 49.0785 28.9722 48.6984 29.3935 48.4217C29.7013 48.2217 30.0191 48.055 30.347 47.9149C30.675 48.055 30.9928 48.2217 31.3006 48.4217C31.7219 48.695 31.9436 49.0752 32.1542 49.5119C32.2715 49.7619 32.5719 49.8686 32.8229 49.752C33.0738 49.6353 33.181 49.3352 33.0638 49.0851L32.4885 48.325C32.1945 48.0149 31.8465 47.7515 31.4682 47.5348C32.0635 47.3748 32.6763 47.2615 33.2882 47.1548C33.4585 47.6515 34.238 48.8851 35.5671 49.7153C37.1691 50.7188 38.7354 51.1056 39.066 50.5788C39.3976 50.0553 38.3671 48.8151 36.7642 47.8149C35.9646 47.3148 35.1146 47.0547 34.456 46.9447C34.7739 46.8814 35.0917 46.8114 35.4031 46.728C36.3832 46.4646 37.3431 46.1579 38.2838 45.8012C38.401 46.1413 39.5011 47.3448 41.1443 47.9082C42.9304 48.525 44.5471 48.5484 44.7513 47.9649C44.9547 47.3782 43.6705 46.4046 41.8798 45.7878C40.8027 45.4144 39.7356 45.4044 39.0468 45.4944C40.3777 44.9343 41.6591 44.2575 42.8672 43.4473C43.0779 43.7674 44.3895 44.7009 46.0896 44.9243C47.9664 45.1677 49.5519 44.8676 49.6325 44.2508C49.7131 43.6374 48.2576 42.9406 46.3799 42.6972C45.2057 42.5439 44.1248 42.7672 43.4727 43.0072L46.4743 40.47C46.5842 40.3633 46.6987 40.2533 46.8086 40.1466C46.9689 40.3967 48.4848 41.1402 50.2782 41.0435C52.1687 40.9402 53.6709 40.3534 53.637 39.7332C53.604 39.1131 52.0451 38.6964 50.1546 38.7997C48.9098 38.8698 47.8427 39.3265 47.2601 39.6899C48.3043 38.6197 49.2844 37.4695 50.1408 36.2458C50.5054 36.4759 52.0249 36.8594 53.6507 36.4792C55.4946 36.0492 56.8731 35.2123 56.7293 34.6089C56.5882 34.0054 54.9789 33.8654 53.136 34.2955C52.0552 34.5489 51.1685 35.0789 50.6299 35.5157C50.6327 35.5123 50.6327 35.509 50.6363 35.5058L52.5736 31.7216C52.7504 31.9017 54.4705 32.1117 56.1531 31.3916C57.8934 30.6481 59.1044 29.5845 58.8607 29.0144C58.6162 28.4443 57.0068 28.5843 55.2665 29.3278C53.9622 29.8845 53.049 30.8414 52.7073 31.3615L54.0455 27.6742C54.1161 27.414 54.1793 27.1507 54.2397 26.8873C54.4843 27.024 56.187 26.9039 57.6892 25.9004C59.2619 24.8536 60.2557 23.5833 59.9104 23.0698C59.566 22.5531 58.0107 22.9865 56.438 24.0367C55.3407 24.7668 54.6381 25.777 54.3533 26.3739C54.6684 24.8602 54.8388 23.3132 54.869 21.7663C54.8717 21.7829 54.879 21.7962 54.8854 21.8029C55.0293 21.9429 56.7659 21.4995 58.0904 20.1559C59.4158 18.8123 60.1321 17.3687 59.6897 16.9352C59.2454 16.5018 57.8101 17.2387 56.4847 18.5822C55.4304 19.6491 54.9523 20.9661 54.8717 21.5329C54.8891 19.9459 54.7618 18.3555 54.487 16.7986C54.0519 14.3214 52.9913 11.9109 51.479 9.89714L51.3352 9.73382C50.8269 8.98031 50.2581 8.20014 49.7662 7.6467C49.2716 7.08991 48.7394 6.62315 48.3007 6.24308L48.2741 6.21307L47.3774 5.34956C47.5111 5.1962 46.9927 3.49251 45.5876 2.22893C44.1825 0.965332 42.7069 0.3152 42.2883 0.775294L42.2819 0.778628ZM11.1688 0.785296C10.5469 0.755289 9.96432 2.2556 9.87089 4.13931C9.7738 6.02303 10.6201 7.59668 10.8207 7.60669C11.0213 7.61669 12.0252 6.13639 12.1196 4.25267C12.2167 2.36895 11.7917 0.818636 11.1688 0.785296ZM49.5189 0.785296C48.896 0.815302 48.471 2.36895 48.5681 4.25267C48.6652 6.13639 49.6664 7.61669 49.8669 7.60669C50.0675 7.59668 50.9139 6.02303 50.8168 4.13931C50.7197 2.2556 50.1381 0.755289 49.5189 0.785296ZM54.2333 5.14285C53.6242 5.01616 52.8145 6.40645 52.4225 8.25015C52.0313 10.0939 52.6203 11.7809 52.8182 11.8209C53.0151 11.8609 54.2361 10.5573 54.6281 8.71358C55.0192 6.86987 54.8415 5.26955 54.2333 5.14285ZM57.6388 10.564C57.0838 10.2872 55.9425 11.4274 55.0961 13.1111C54.2461 14.7948 54.3872 16.5752 54.564 16.6652C54.7453 16.7553 56.2603 15.8017 57.1067 14.118C57.9567 12.4343 58.1948 10.8407 57.6388 10.564ZM49.4053 17.3887C49.0005 17.8588 49.8395 19.2358 51.2784 20.4593C52.7174 21.6829 54.4843 21.9763 54.6143 21.823C54.7453 21.6695 54.1793 19.9758 52.7403 18.7523C51.3022 17.5287 49.8102 16.9186 49.4053 17.3887ZM6.44797 5.14285C5.83886 5.26955 5.66208 6.86987 6.0532 8.71358C6.44431 10.5573 7.66619 11.8642 7.86312 11.8209C8.06097 11.7809 8.64992 10.0939 8.25789 8.25015C7.86678 6.40645 7.05708 5.01282 6.44797 5.14285ZM11.276 17.3887C10.8711 16.9186 9.37902 17.5287 7.94006 18.7523C6.50201 19.9758 5.93595 21.6695 6.06693 21.823C6.197 21.9763 7.96387 21.6829 9.40284 20.4593C10.8409 19.2358 11.6808 17.8588 11.276 17.3887ZM3.04245 10.564C2.48647 10.8407 2.7237 12.4343 3.57371 14.118C4.42371 15.8017 5.93962 16.7553 6.1164 16.6652C6.29776 16.5752 6.43423 14.7948 5.58514 13.1111C4.73514 11.4274 3.59752 10.2872 3.04245 10.564ZM49.1772 25.557C48.6258 25.8404 48.8759 27.4307 49.7433 29.1077C50.6061 30.7847 52.1321 31.7216 52.3089 31.6316C52.4866 31.5416 52.6102 29.7579 51.7437 28.0808C50.8809 26.4038 49.7295 25.2736 49.1772 25.557ZM11.5068 25.557C10.9545 25.2736 9.80402 26.4038 8.94028 28.0808C8.07745 29.7579 8.19836 31.5382 8.37514 31.6316C8.55284 31.7216 10.0779 30.7847 10.9416 29.1077C11.8045 27.4307 12.0591 25.8404 11.5068 25.557Z" fill="url(#paint0_linear_1_51)" stroke="url(#paint1_linear_1_51)" stroke-width="0.203961"/>
<defs>
<linearGradient id="paint0_linear_1_51" x1="30.3471" y1="0.627533" x2="30.3471" y2="50.8143" gradientUnits="userSpaceOnUse">
<stop stop-color="#D0ECD1"/>
<stop offset="1" stop-color="#3C5268"/>
</linearGradient>
<linearGradient id="paint1_linear_1_51" x1="30.3471" y1="0.627533" x2="30.3471" y2="50.8143" gradientUnits="userSpaceOnUse">
<stop stop-color="#D0ECD1"/>
<stop offset="1" stop-color="#3C5268"/>
</linearGradient>
</defs>
</svg>
