<svg width="24" height="24" viewBox="0 0 24 24" fill="none" xmlns="http://www.w3.org/2000/svg">
<path d="M22.5 24C22.5 24 18.9645 22.6087 16.1047 21.495H4.07775C2.655 21.495 1.5 20.2695 1.5 18.7598V2.733C1.5 1.22475 2.655 0 4.07775 0H19.9215C21.345 0 22.4993 1.224 22.4993 2.73375V16.5368L22.5 24ZM19.3958 15.0135C19.3396 14.9414 19.2691 14.8818 19.1886 14.8383C19.1082 14.7949 19.0196 14.7687 18.9285 14.7613C18.8375 14.7539 18.7458 14.7655 18.6594 14.7953C18.5731 14.8252 18.4938 14.8727 18.4268 14.9347C18.4043 14.9543 16.1655 16.9455 11.9992 16.9455C7.88475 16.9455 5.6115 14.9685 5.571 14.9325C5.50386 14.8707 5.42464 14.8236 5.33835 14.794C5.25206 14.7644 5.16057 14.753 5.06966 14.7605C4.97875 14.7681 4.89038 14.7944 4.81015 14.8378C4.72992 14.8812 4.65955 14.9408 4.6035 15.0128C4.48344 15.1625 4.42474 15.3523 4.43925 15.5438C4.45193 15.7342 4.53731 15.9125 4.67775 16.0417C4.78425 16.1378 7.3305 18.4042 11.9992 18.4042C16.6687 18.4042 19.215 16.1378 19.3215 16.0417C19.4617 15.9124 19.5468 15.7341 19.5592 15.5438C19.5738 15.3527 19.5154 15.1632 19.3958 15.0135Z" fill="white"/>
</svg>
