<svg width="111" height="31" viewBox="0 0 111 31" fill="none" xmlns="http://www.w3.org/2000/svg">
<g clip-path="url(#clip0_1_85)">
<g clip-path="url(#clip1_1_85)">
<g clip-path="url(#clip2_1_85)">
<mask id="mask0_1_85" style="mask-type:luminance" maskUnits="userSpaceOnUse" x="0" y="3" width="111" height="25">
<path d="M110.36 3.46375H0.359985V27.5964H110.36V3.46375Z" fill="white"/>
</mask>
<g mask="url(#mask0_1_85)">
<path d="M96.5165 25.4394C101.238 26.0961 106.082 25.4469 110.15 22.8241C110.167 22.8133 110.186 22.8071 110.206 22.8064C110.225 22.8054 110.245 22.8099 110.262 22.8195C110.28 22.8288 110.294 22.8429 110.304 22.8597C110.314 22.8767 110.319 22.8962 110.319 22.9158L110.313 25.157C110.312 25.2168 110.284 25.2593 110.229 25.2842C105.945 27.1811 101.741 27.877 97.2199 27.4393C91.7105 26.9042 86.3471 24.0233 85.1928 18.1473C84.7401 15.8501 84.8767 13.2591 85.7278 11.0497C87.7408 5.8191 93.5195 3.69206 98.6678 3.49376C102.832 3.33475 106.525 4.18032 110.237 5.73117C110.26 5.74055 110.28 5.75678 110.294 5.77779C110.308 5.7988 110.315 5.82361 110.315 5.84903L110.313 8.19121C110.313 8.20679 110.309 8.22204 110.301 8.23536C110.292 8.24868 110.281 8.2596 110.267 8.26703C110.254 8.27446 110.238 8.2781 110.222 8.2776C110.207 8.27709 110.192 8.27245 110.179 8.26417C105.668 5.40566 100.138 4.67607 94.9731 5.89206C89.2224 7.24648 86.435 11.5735 87.2675 17.3523C87.9858 22.3359 91.8676 24.7922 96.5165 25.4394Z" fill="white"/>
<path d="M2.66098 25.1141L19.2826 25.116C19.3222 25.116 19.3604 25.1317 19.3885 25.1598C19.4165 25.1879 19.4322 25.2258 19.4322 25.2657L19.4285 26.9475C19.4285 26.9671 19.4246 26.9866 19.4171 27.0047C19.4096 27.0229 19.3986 27.0393 19.3847 27.0532C19.3707 27.0672 19.3542 27.0782 19.3361 27.0857C19.3179 27.0932 19.2985 27.0971 19.2788 27.0971L0.513368 27.1158C0.473676 27.1158 0.435609 27.0999 0.407543 27.0719C0.379476 27.0438 0.363708 27.0058 0.363708 26.9662L0.36745 4.0719C0.36745 4.05224 0.371321 4.03278 0.378842 4.01462C0.386363 3.99647 0.397387 3.97997 0.411284 3.96607C0.425182 3.95217 0.44168 3.94115 0.459837 3.93363C0.477995 3.92611 0.497456 3.92224 0.51711 3.92224L2.35979 3.91101C2.39949 3.91101 2.43756 3.92678 2.46562 3.95485C2.49368 3.98291 2.50945 4.02098 2.50945 4.06067L2.51132 24.9645C2.51132 25.0041 2.52709 25.0421 2.55516 25.0702C2.58324 25.0982 2.62129 25.1141 2.66098 25.1141Z" fill="white"/>
<path d="M78.7443 7.61854C78.7447 7.60788 78.7415 7.59747 78.7353 7.58893C78.729 7.58038 78.72 7.57415 78.7097 7.57117C78.6992 7.56822 78.6882 7.56868 78.6779 7.5725C78.6676 7.57634 78.6586 7.58329 78.6527 7.59235L66.186 26.9303C66.1474 26.9899 66.0947 27.0389 66.0326 27.0726C65.9705 27.1063 65.9009 27.1235 65.8305 27.1229L64.4424 27.1173C64.3603 27.1168 64.2797 27.0958 64.2079 27.0562C64.1358 27.0167 64.075 26.96 64.0309 26.891L51.6297 7.62228C51.5212 7.45391 51.4669 7.46952 51.4669 7.66905L51.4782 27.0257C51.4782 27.0476 51.4694 27.0685 51.4535 27.0838C51.4378 27.0994 51.4162 27.108 51.394 27.108L49.4877 27.1024C49.4445 27.1024 49.4031 27.0852 49.3726 27.0547C49.3421 27.0242 49.3249 26.9828 49.3249 26.9396L49.3231 4.01923C49.3231 3.99194 49.3339 3.96577 49.3532 3.94647C49.3724 3.92718 49.3986 3.91634 49.4259 3.91634H51.4651C51.5098 3.91636 51.5535 3.92733 51.5925 3.94825C51.6314 3.96917 51.6641 3.99936 51.6877 4.03606L65.0766 24.7434C65.0871 24.7596 65.1015 24.7729 65.1185 24.7821C65.1356 24.7914 65.1546 24.7963 65.1739 24.7963C65.1932 24.7963 65.2123 24.7914 65.2293 24.7821C65.2463 24.7729 65.2607 24.7596 65.2712 24.7434L78.4731 4.08657C78.5069 4.03437 78.5533 3.99145 78.6079 3.96172C78.6624 3.932 78.7235 3.91639 78.7855 3.91634L80.7591 3.90698C80.7913 3.90698 80.8223 3.91979 80.8452 3.9426C80.8678 3.9654 80.8807 3.99633 80.8807 4.02858L80.877 26.9882C80.877 27.0064 80.873 27.0244 80.8654 27.041C80.8575 27.0577 80.8463 27.0728 80.8321 27.0855C80.8177 27.0982 80.8008 27.1082 80.7821 27.1149C80.7636 27.1218 80.7436 27.125 80.7236 27.1248L78.8584 27.1024C78.8279 27.102 78.7989 27.0895 78.7776 27.0678C78.7563 27.0461 78.7443 27.0169 78.7443 26.9864V7.61854Z" fill="white"/>
<path d="M39.7972 14.6378C39.3533 14.7338 39.3581 14.7912 39.8122 14.8099C41.0893 14.8635 42.3165 15.2844 43.4938 16.0726C45.4618 17.3878 45.7387 20.5624 45.2317 22.6558C44.2028 26.9136 38.7758 27.1568 35.3429 27.1437C31.5392 27.1288 27.7352 27.1245 23.9314 27.1306C23.4837 27.132 23.0366 27.1095 22.5901 27.0633C22.5614 27.0609 22.5347 27.0478 22.5152 27.0263C22.496 27.0047 22.4851 26.9765 22.4853 26.9473L22.4909 4.15599C22.4909 4.00383 22.5676 3.92713 22.721 3.92589C27.2458 3.90967 31.8115 3.9209 36.4186 3.95956C39.7841 3.98762 43.4433 4.98847 43.7333 9.04237C43.9484 12.0225 42.8895 13.9699 39.7972 14.6378ZM24.6385 5.86584L24.6123 13.7978C24.6123 13.8042 24.6136 13.8105 24.6161 13.8164C24.6185 13.8223 24.6221 13.8277 24.6266 13.8322C24.631 13.8367 24.6365 13.8403 24.6425 13.8428C24.6483 13.8452 24.6546 13.8465 24.661 13.8465L36.7647 13.8895C37.4206 13.8919 38.0703 13.8052 38.677 13.6344C39.2835 13.4637 39.835 13.2122 40.2999 12.8942C40.7647 12.5763 41.1338 12.1983 41.3864 11.7816C41.6388 11.365 41.7693 10.9179 41.7708 10.466L41.7746 9.31737C41.7776 8.40497 41.2543 7.52813 40.3201 6.87981C39.3858 6.23146 38.1171 5.86472 36.7928 5.86023L24.689 5.81722C24.6825 5.81696 24.6759 5.81803 24.6698 5.82037C24.6638 5.8227 24.6582 5.82624 24.6535 5.83079C24.6486 5.83533 24.6449 5.84078 24.6425 5.8468C24.6398 5.85282 24.6385 5.8593 24.6385 5.86584ZM37.2006 25.1383C39.8122 25.1102 42.9999 24.4723 43.2169 21.2827C43.3554 19.2398 42.7343 17.4402 40.7344 16.5796C39.4524 16.0284 37.8885 15.7546 36.0426 15.7584C32.2549 15.7659 28.4792 15.7715 24.7152 15.7752C24.6615 15.7752 24.6348 15.802 24.6348 15.8557L24.6198 25.026C24.6198 25.1196 24.6666 25.1664 24.7601 25.1664C28.8958 25.1901 33.0425 25.1808 37.2006 25.1383Z" fill="white"/>
</g>
</g>
</g>
</g>
<defs>
<clipPath id="clip0_1_85">
<rect width="110" height="30" fill="white" transform="translate(0.359985 0.530029)"/>
</clipPath>
<clipPath id="clip1_1_85">
<rect width="110" height="30" fill="white" transform="translate(0.359985 0.530029)"/>
</clipPath>
<clipPath id="clip2_1_85">
<rect width="110" height="24.1327" fill="white" transform="translate(0.359985 3.46375)"/>
</clipPath>
</defs>
</svg>
