<svg width="24" height="25" viewBox="0 0 24 25" fill="none" xmlns="http://www.w3.org/2000/svg">
<g clip-path="url(#clip0_1_282)">
<g clip-path="url(#clip1_1_282)">
<g clip-path="url(#clip2_1_282)">
<path d="M22.2235 0.530273H1.77188C0.792188 0.530273 0 1.30371 0 2.25996V22.7959C0 23.7521 0.792188 24.5303 1.77188 24.5303H22.2235C23.2031 24.5303 24 23.7521 24 22.8006V2.25996C24 1.30371 23.2031 0.530273 22.2235 0.530273ZM7.12031 20.9819H3.55781V9.52558H7.12031V20.9819ZM5.33906 7.96464C4.19531 7.96464 3.27188 7.04121 3.27188 5.90215C3.27188 4.76309 4.19531 3.83964 5.33906 3.83964C6.47812 3.83964 7.40157 4.76309 7.40157 5.90215C7.40157 7.03652 6.47812 7.96464 5.33906 7.96464ZM20.4516 20.9819H16.8937V15.4131C16.8937 14.0866 16.8704 12.3756 15.0422 12.3756C13.1906 12.3756 12.9094 13.824 12.9094 15.3193V20.9819H9.35625V9.52558H12.7688V11.0912H12.8157C13.289 10.1912 14.4516 9.23965 16.1812 9.23965C19.7859 9.23965 20.4516 11.6115 20.4516 14.6959V20.9819Z" fill="#E8EAEC"/>
</g>
</g>
</g>
<defs>
<clipPath id="clip0_1_282">
<rect width="24" height="24" fill="white" transform="translate(0 0.530273)"/>
</clipPath>
<clipPath id="clip1_1_282">
<rect width="24" height="24" fill="white" transform="translate(0 0.530273)"/>
</clipPath>
<clipPath id="clip2_1_282">
<rect width="24" height="24" fill="white" transform="translate(0 0.530273)"/>
</clipPath>
</defs>
</svg>
