<svg width="130" height="24" viewBox="0 0 130 24" fill="none" xmlns="http://www.w3.org/2000/svg">
<g clip-path="url(#clip0_1_354)">
<mask id="mask0_1_354" style="mask-type:luminance" maskUnits="userSpaceOnUse" x="0" y="0" width="130" height="24">
<path d="M129.959 0.589996H0.0410767V23.4H129.959V0.589996Z" fill="white"/>
</mask>
<g mask="url(#mask0_1_354)">
<path d="M8.42102 13.8709C8.47705 12.6837 9.42944 11.4288 10.6534 10.8397C11.7323 10.3203 12.4466 10.2262 15.5553 10.194C15.9174 10.1902 17.6607 10.1871 19.4292 10.1871L22.6445 10.187V10.2069C22.6445 10.2296 22.5768 10.7878 22.5438 11.0364C21.6283 17.9484 17.7617 21.8679 11.354 22.3792C10.8641 22.4184 10.6079 22.428 9.85461 22.4357C8.72279 22.4473 8.10656 22.4697 7.80407 22.5103C7.66534 22.5289 7.66047 22.531 7.59224 22.6009C7.45627 22.74 6.95366 23.1506 6.59632 23.4145L6.56947 23.4343V23.3878C6.56947 23.3623 6.57916 23.1827 6.591 22.9886C6.60282 22.7946 6.61897 22.5301 6.62688 22.4008C6.67067 21.6828 6.69668 21.3407 6.73803 20.9372C6.78427 20.4864 6.80991 20.3041 6.86655 20.0247C6.93843 19.6699 7.02492 19.1315 7.08869 18.6419C7.16334 18.0688 7.21197 17.9544 7.42652 17.8471C7.70225 17.7093 8.05972 17.6839 9.72839 17.6836C10.7955 17.6833 11.989 17.6738 12.3262 17.6628C14.2319 17.6004 14.7605 17.3858 15.3358 16.4409C15.4646 16.2293 15.8044 15.5821 15.9472 15.2761C16.4808 14.1332 16.2163 13.9491 13.9485 13.8853C13.7836 13.8807 12.6669 13.8764 11.0506 13.8742L8.42102 13.8709ZM2.38251 19.4538C2.21765 19.3998 2.02752 19.2403 1.71948 18.8976C0.0242719 17.0119 -0.413966 14.0965 0.528882 10.9767C1.46596 7.87598 3.61254 5.03909 6.43348 3.17336C9.12289 1.39457 10.596 1.07429 16.6289 0.9565C19.1485 0.907326 20.723 0.821324 21.7069 0.67918C22.9073 0.505767 22.9325 0.520645 22.7941 1.32154C22.4963 3.04453 22.1405 3.77104 21.3419 4.28702C20.4828 4.84206 19.2612 5.08662 16.2747 5.30151C14.6555 5.41797 13.3409 5.62853 12.0949 5.97081C7.41082 7.2576 4.65546 10.3032 3.40959 15.5709C3.07884 16.9694 2.85713 18.1653 2.84069 18.6397C2.82418 19.1155 2.75049 19.3523 2.59038 19.4443C2.54746 19.469 2.44343 19.4738 2.38251 19.4538Z" fill="#00E676"/>
<path d="M84.9979 13.6979C84.5921 13.6501 84.0383 13.636 83.5055 13.6357L82.5368 13.6353V12.3104V10.9855L83.1785 10.9534C84.0135 10.9116 87.4986 10.9115 88.1942 10.9533L88.7344 10.9857L88.7138 12.397C88.6843 14.4212 88.3998 15.2429 87.3491 16.3384C86.0735 17.6684 83.5881 18.3915 81.4593 18.0518C78.2817 17.5447 76.1143 15.0183 76.1248 11.8339C76.1437 6.12345 83.1716 3.47925 87.4266 7.5817C87.8418 7.98206 88.4338 8.69521 88.4119 8.76876C88.3914 8.83717 86.0802 10.3354 85.8771 10.4118C85.8279 10.4303 85.6804 10.3102 85.4462 10.061C84.2607 8.79924 82.5554 8.41703 81.2536 9.12125C79.1671 10.2499 79.1087 13.3536 81.1512 14.5677C82.412 15.3171 84.2682 14.9818 84.887 13.893L84.9979 13.6979ZM90.3871 5.83747H93.809V9.48058C93.809 13.439 93.8124 13.4939 94.0894 14.0628C94.7722 15.4655 96.7634 15.2451 97.2256 13.7157C97.3298 13.371 97.332 13.287 97.3318 9.60069L97.3317 5.83747H99.0426H100.753V9.90369C100.753 14.4105 100.755 14.3862 100.425 15.2254C99.6394 17.2209 97.1611 18.4424 94.6897 18.0521C92.5135 17.7084 91.1218 16.627 90.6182 14.8885C90.4014 14.1402 90.3871 13.8208 90.3871 9.72535V5.83747ZM26.5782 17.874V5.83747H31.0065H35.4349V7.3921V8.94674L32.8056 8.9475C31.2404 8.94796 30.1457 8.96716 30.1008 8.99497C30.0152 9.04788 29.9645 10.0908 30.0246 10.5621L30.0577 10.8222H32.5198H34.982V12.4015V13.9808H32.5228H30.0636L30.0324 14.1659C30.0153 14.2677 30.001 15.1418 30.0007 16.1083L30.0001 17.8657L29.6908 17.8974C29.3725 17.9301 27.1736 17.9267 26.792 17.893L26.5782 17.874ZM37.0956 17.8759V5.83747H38.8066H40.5175V11.8509V17.8642L39.6792 17.8966C38.8688 17.928 38.469 17.9272 37.5359 17.8924L37.0956 17.8759ZM42.6814 17.8766V5.83747H47.0846H51.4878V7.3921V8.94674L48.8584 8.9475C47.4124 8.94792 46.2002 8.96631 46.1647 8.98835C46.1164 9.01841 46.1038 9.19405 46.1144 9.69087L46.1285 10.3533L48.6076 10.3661L51.0867 10.3789L51.0734 11.9207L51.0601 13.4626L48.5943 13.489C47.2381 13.5034 46.1228 13.52 46.1159 13.526C46.0516 13.5807 46.1141 14.7147 46.1829 14.7405C46.2268 14.757 47.4383 14.7705 48.8752 14.7705H51.4878V16.3181V17.8657L51.1785 17.8974C50.8792 17.9281 44.4703 17.9239 43.2727 17.8923L42.6814 17.8766ZM53.3497 17.8743V5.83747H55.0608H56.7717V10.1774C56.7717 12.8778 56.7903 14.5651 56.8208 14.6438L56.8698 14.7705H59.5382H62.2065V16.318V17.8655L61.8669 17.8969C61.5161 17.9294 54.014 17.9257 53.5888 17.8929L53.3497 17.8743ZM63.5652 17.8765V5.83747L66.3707 5.83768C68.6129 5.83783 69.2688 5.85261 69.6377 5.91128C72.1681 6.31378 74.0933 8.2106 74.5127 10.7142C75.0962 14.1969 73.0739 17.1814 69.7046 17.8103C69.2793 17.8897 65.676 17.9442 64.1314 17.8947L63.5652 17.8765ZM102.766 17.8746V5.83747H104.477H106.188V11.8514V17.8653L105.803 17.8971C105.415 17.9294 103.52 17.9263 103.03 17.8927L102.766 17.8746ZM108.3 17.8737L108.304 5.83186L111.335 5.85151C114.527 5.87219 114.433 5.86605 115.271 6.10853C116.569 6.48399 117.776 7.43489 118.555 8.69361C118.645 8.83942 118.719 8.96647 118.719 8.97594C118.719 8.98542 118.777 9.11929 118.849 9.27339C119.44 10.5408 119.536 12.3678 119.086 13.8327C118.459 15.8803 116.725 17.3794 114.488 17.8101C114.078 17.8889 109.06 17.9602 108.49 17.8953L108.3 17.8737ZM121.084 17.875V5.83747H125.487H129.89V7.3921V8.94674L127.311 8.94742C125.893 8.94779 124.681 8.96164 124.617 8.97821C124.504 9.00792 124.503 9.01745 124.517 9.68082L124.531 10.3533L126.997 10.378L129.462 10.4027V11.9326V13.4626L126.997 13.489C125.641 13.5034 124.525 13.52 124.518 13.526C124.454 13.5807 124.516 14.7147 124.586 14.7405C124.629 14.757 125.84 14.7705 127.277 14.7705H129.89V16.3178V17.8651L129.475 17.8968C129.056 17.9288 121.982 17.9251 121.398 17.8926L121.084 17.875ZM69.1068 14.6766C71.8556 13.9871 71.6896 9.44101 68.8994 8.99928C68.4923 8.93483 67.1898 8.93179 67.0878 8.99505C67.0221 9.03577 67.0123 9.40854 67.0123 11.8586C67.0123 14.3087 67.0221 14.6814 67.0878 14.7222C67.2338 14.8126 68.6958 14.7796 69.1068 14.6766ZM113.794 14.6994C116.281 14.1824 116.613 10.1893 114.254 9.16615C113.823 8.97949 112.189 8.85048 111.854 8.97671C111.747 9.01695 111.731 14.6956 111.837 14.7378C111.982 14.7952 113.474 14.7659 113.794 14.6994Z" fill="white"/>
</g>
</g>
<defs>
<clipPath id="clip0_1_354">
<rect width="129.918" height="22.81" fill="white" transform="translate(0.0410767 0.589996)"/>
</clipPath>
</defs>
</svg>
