<svg width="21" height="8" viewBox="0 0 21 8" fill="none" xmlns="http://www.w3.org/2000/svg">
<path d="M0.0588387 7.64192V6.68301L2.60244 4.18923C2.84608 3.94348 3.04851 3.7253 3.21063 3.53441C3.37276 3.34362 3.49458 3.15878 3.5761 2.9799C3.6567 2.80092 3.69792 2.61013 3.69792 2.40742C3.69792 2.17605 3.64479 1.97802 3.54038 1.81343C3.43504 1.64645 3.29123 1.51767 3.10712 1.42699C2.92393 1.3364 2.7151 1.29106 2.48153 1.29106C2.24063 1.29106 2.02905 1.34116 1.84769 1.44137C1.66633 1.5391 1.52619 1.67869 1.42543 1.85996C1.32743 2.04123 1.27889 2.25712 1.27889 2.50754H0.0157776C0.0157776 2.04242 0.122035 1.63811 0.334536 1.29463C0.547038 0.951148 0.839228 0.685156 1.21111 0.496744C1.58573 0.308332 2.0144 0.214081 2.49894 0.214081C2.99081 0.214081 3.42221 0.305951 3.79409 0.4896C4.16597 0.673249 4.4545 0.924953 4.65967 1.24453C4.86759 1.5642 4.97109 1.92911 4.97109 2.33937C4.97109 2.6137 4.91889 2.88326 4.81355 3.14797C4.70913 3.41278 4.52411 3.70616 4.2594 4.02821C3.99652 4.35016 3.62831 4.74018 3.15385 5.19815L1.89075 6.48269V6.53279H5.08193V7.64192H0.0588387ZM8.47095 7.78142C7.882 7.78142 7.3764 7.63239 6.95414 7.33425C6.53372 7.03363 6.2113 6.60075 5.98414 6.03543C5.75973 5.46772 5.64798 4.78432 5.64798 3.98525C5.65073 3.18617 5.76339 2.50635 5.9878 1.94578C6.21496 1.38293 6.53738 0.95353 6.9578 0.657769C7.38006 0.362007 7.88383 0.214081 8.47095 0.214081C9.05808 0.214081 9.56186 0.362007 9.98412 0.657769C10.4064 0.95353 10.7297 1.38293 10.9541 1.94578C11.1803 2.50873 11.2939 3.18855 11.2939 3.98525C11.2939 4.78671 11.1803 5.47129 10.9541 6.039C10.7297 6.60433 10.4064 7.03602 9.98412 7.33425C9.56461 7.63239 9.05991 7.78142 8.47095 7.78142ZM8.47095 6.66157C8.92893 6.66157 9.29074 6.43616 9.55545 5.98533C9.82199 5.53211 9.95572 4.86539 9.95572 3.98525C9.95572 3.40325 9.89526 2.91422 9.77344 2.51826C9.65162 2.12238 9.48034 1.82415 9.25777 1.62383C9.03611 1.42103 8.77413 1.31973 8.47095 1.31973C8.01572 1.31973 7.65485 1.54634 7.39013 1.99946C7.12542 2.45029 6.9917 3.11225 6.98987 3.98525C6.98712 4.56962 7.04573 5.06104 7.16481 5.45938C7.28663 5.85773 7.45883 6.15826 7.68049 6.36105C7.90215 6.56137 8.16594 6.66157 8.47095 6.66157ZM11.9287 7.64192V6.68301L14.4723 4.18923C14.7159 3.94348 14.9184 3.7253 15.0805 3.53441C15.2426 3.34362 15.3644 3.15878 15.446 2.9799C15.5266 2.80092 15.5678 2.61013 15.5678 2.40742C15.5678 2.17605 15.5146 1.97802 15.4102 1.81343C15.3049 1.64645 15.1611 1.51767 14.977 1.42699C14.7938 1.3364 14.585 1.29106 14.3505 1.29106C14.1096 1.29106 13.8989 1.34116 13.7175 1.44137C13.5362 1.5391 13.396 1.67869 13.2953 1.85996C13.1973 2.04123 13.1487 2.25712 13.1487 2.50754H11.8856C11.8856 2.04242 11.9919 1.63811 12.2044 1.29463C12.4169 0.951148 12.7091 0.685156 13.081 0.496744C13.4556 0.308332 13.8843 0.214081 14.3688 0.214081C14.8597 0.214081 15.2921 0.305951 15.6639 0.4896C16.0358 0.673249 16.3243 0.924953 16.5295 1.24453C16.7374 1.5642 16.8409 1.92911 16.8409 2.33937C16.8409 2.6137 16.7887 2.88326 16.6834 3.14797C16.579 3.41278 16.394 3.70616 16.1293 4.02821C15.8664 4.35016 15.4982 4.74018 15.0237 5.19815L13.7606 6.48269V6.53279H16.9518V7.64192H11.9287ZM20.6129 0.314286V7.64192H19.2856V1.60596H19.2426L17.5288 2.7008V1.48423L19.3497 0.314286H20.6129Z" fill="url(#paint0_linear_1_52)"/>
<defs>
<linearGradient id="paint0_linear_1_52" x1="10.6152" y1="-5.18144" x2="10.6152" y2="13.1376" gradientUnits="userSpaceOnUse">
<stop stop-color="#D0ECD1"/>
<stop offset="1" stop-color="#3C5268"/>
</linearGradient>
</defs>
</svg>
