<svg width="23" height="8" viewBox="0 0 23 8" fill="none" xmlns="http://www.w3.org/2000/svg">
<path d="M0.0376175 7.72597V6.76705L2.5815 4.27327C2.82477 4.02752 3.02757 3.80935 3.18978 3.61846C3.35191 3.42767 3.47364 3.24283 3.5547 3.06394C3.63576 2.88496 3.67634 2.69417 3.67634 2.49147C3.67634 2.2601 3.62385 2.06207 3.51889 1.89747C3.41401 1.73049 3.26965 1.60171 3.086 1.51103C2.90236 1.42044 2.69361 1.37511 2.45986 1.37511C2.21896 1.37511 2.00784 1.42521 1.82657 1.52541C1.6453 1.62314 1.50452 1.76274 1.40431 1.944C1.30658 2.12527 1.25767 2.34116 1.25767 2.59158H-0.00534058C-0.00534058 2.12646 0.100819 1.72216 0.313046 1.37868C0.525364 1.03519 0.817553 0.769201 1.18971 0.580789C1.56415 0.392377 1.99355 0.298126 2.47772 0.298126C2.96913 0.298126 3.40082 0.389997 3.77297 0.573646C4.14503 0.757294 4.43365 1.009 4.63882 1.32857C4.84638 1.64824 4.95006 2.01316 4.95006 2.42341C4.95006 2.69774 4.89758 2.96731 4.7927 3.23202C4.68773 3.49682 4.5029 3.7902 4.23809 4.11225C3.97567 4.43421 3.60718 4.82422 3.13254 5.2822L1.86953 6.56673V6.61684H5.06099V7.72597H0.0376175ZM8.44974 7.86546C7.8606 7.86546 7.3549 7.71644 6.93274 7.4183C6.51287 7.11768 6.18972 6.6848 5.96311 6.11947C5.73888 5.55176 5.62677 4.86837 5.62677 4.06929C5.62915 3.27021 5.74246 2.59039 5.96668 2.02983C6.19329 1.46698 6.51644 1.03758 6.93631 0.741814C7.35847 0.446053 7.86298 0.298126 8.44974 0.298126C9.0365 0.298126 9.54101 0.446053 9.96326 0.741814C10.3854 1.03758 10.7087 1.46698 10.9329 2.02983C11.1595 2.59277 11.2728 3.27259 11.2728 4.06929C11.2728 4.87075 11.1595 5.55534 10.9329 6.12304C10.7087 6.68837 10.3854 7.12006 9.96326 7.4183C9.54339 7.71644 9.03888 7.86546 8.44974 7.86546ZM8.44974 6.74562C8.90772 6.74562 9.26915 6.5202 9.53386 6.06937C9.80105 5.61616 9.9346 4.94943 9.9346 4.06929C9.9346 3.48729 9.87377 2.99827 9.75214 2.6023C9.6305 2.20643 9.45876 1.90819 9.23691 1.70787C9.01507 1.50508 8.75265 1.40377 8.44974 1.40377C7.99414 1.40377 7.63399 1.63038 7.36919 2.0835C7.10448 2.53434 6.97084 3.1963 6.96846 4.06929C6.96608 4.65367 7.02452 5.14508 7.14377 5.54343C7.2655 5.94178 7.43724 6.2423 7.659 6.4451C7.88084 6.64541 8.14445 6.74562 8.44974 6.74562ZM11.9074 7.72597V6.76705L14.4513 4.27327C14.6946 4.02752 14.8973 3.80935 15.0595 3.61846C15.2218 3.42767 15.3434 3.24283 15.4245 3.06394C15.5056 2.88496 15.5462 2.69417 15.5462 2.49147C15.5462 2.2601 15.4937 2.06207 15.3887 1.89747C15.2838 1.73049 15.1394 1.60171 14.9558 1.51103C14.7721 1.42044 14.5634 1.37511 14.3296 1.37511C14.0887 1.37511 13.8776 1.42521 13.6963 1.52541C13.5151 1.62314 13.3744 1.76274 13.2742 1.944C13.1763 2.12527 13.1274 2.34116 13.1274 2.59158H11.8644C11.8644 2.12646 11.9706 1.72216 12.1829 1.37868C12.3952 1.03519 12.6874 0.769201 13.0595 0.580789C13.434 0.392377 13.8633 0.298126 14.3476 0.298126C14.8389 0.298126 15.2707 0.389997 15.6427 0.573646C16.0149 0.757294 16.3035 1.009 16.5086 1.32857C16.7161 1.64824 16.8199 2.01316 16.8199 2.42341C16.8199 2.69774 16.7674 2.96731 16.6625 3.23202C16.5575 3.49682 16.3727 3.7902 16.1079 4.11225C15.8455 4.43421 15.4769 4.82422 15.0023 5.2822L13.7393 6.56673V6.61684H16.9308V7.72597H11.9074ZM20.2408 7.82617C19.7256 7.82617 19.2676 7.73787 18.8669 7.56137C18.4685 7.38486 18.1537 7.1392 17.9224 6.8243C17.691 6.50949 17.5682 6.14567 17.5538 5.73303H18.8991C18.911 5.93106 18.9766 6.10399 19.0959 6.25183C19.2151 6.39737 19.3738 6.51068 19.5718 6.59174C19.7697 6.67289 19.9916 6.71338 20.2372 6.71338C20.4997 6.71338 20.7322 6.66813 20.9349 6.57745C21.1377 6.48439 21.2964 6.35561 21.4109 6.19101C21.5254 6.02641 21.5814 5.83681 21.579 5.62211C21.5814 5.40027 21.5242 5.20471 21.4073 5.03535C21.2904 4.86599 21.1211 4.73363 20.8992 4.63819C20.6797 4.54275 20.4149 4.49512 20.1049 4.49512H19.4573V3.47181H20.1049C20.3601 3.47181 20.5831 3.42767 20.774 3.33937C20.9672 3.25116 21.1187 3.12714 21.2284 2.96731C21.338 2.80509 21.3917 2.61787 21.3893 2.40555C21.3917 2.198 21.3453 2.01792 21.2498 1.86532C21.1568 1.71025 21.0244 1.58981 20.8527 1.50389C20.6833 1.41806 20.4842 1.37511 20.2552 1.37511C20.031 1.37511 19.8234 1.41568 19.6326 1.49674C19.4417 1.5779 19.288 1.69358 19.1711 1.8438C19.0542 1.99173 18.9921 2.16823 18.985 2.37331H17.7077C17.7172 1.96306 17.8352 1.6029 18.0619 1.29285C18.2908 0.980329 18.5962 0.737052 18.9778 0.562929C19.3595 0.386425 19.7876 0.298126 20.2623 0.298126C20.7513 0.298126 21.1759 0.389997 21.5361 0.573646C21.8986 0.754913 22.1789 0.999381 22.3769 1.30714C22.5749 1.61481 22.6739 1.95472 22.6739 2.32687C22.6762 2.73951 22.5546 3.08537 22.3089 3.36447C22.0656 3.64356 21.746 3.82601 21.35 3.91184V3.96909C21.8653 4.04071 22.26 4.23151 22.5343 4.54156C22.811 4.84932 22.9482 5.2321 22.9458 5.69007C22.9458 6.10042 22.8288 6.46772 22.5951 6.79215C22.3637 7.11411 22.0442 7.367 21.6363 7.55065C21.2308 7.7343 20.7656 7.82617 20.2408 7.82617Z" fill="url(#paint0_linear_1_40)"/>
<defs>
<linearGradient id="paint0_linear_1_40" x1="11.4545" y1="-5.09739" x2="11.4545" y2="13.2217" gradientUnits="userSpaceOnUse">
<stop stop-color="#D0ECD1"/>
<stop offset="1" stop-color="#3C5268"/>
</linearGradient>
</defs>
</svg>
