<svg width="23" height="8" viewBox="0 0 23 8" fill="none" xmlns="http://www.w3.org/2000/svg">
<path d="M0.364703 7.72597V6.76705L2.90922 4.27327C3.15195 4.02752 3.35529 3.80935 3.51742 3.61846C3.67954 3.42767 3.80137 3.24283 3.88197 3.06394C3.96349 2.88496 4.00379 2.69417 4.00379 2.49147C4.00379 2.2601 3.95158 2.06207 3.84625 1.89747C3.74183 1.73049 3.59711 1.60171 3.41392 1.51103C3.22981 1.42044 3.02097 1.37511 2.78741 1.37511C2.54651 1.37511 2.33492 1.42521 2.15448 1.52541C1.97312 1.62314 1.83206 1.76274 1.73223 1.944C1.63422 2.12527 1.58475 2.34116 1.58475 2.59158H0.322571C0.322571 2.12646 0.427906 1.72216 0.640407 1.37868C0.852908 1.03519 1.1451 0.769201 1.51698 0.580789C1.8916 0.392377 2.32118 0.298126 2.80481 0.298126C3.29667 0.298126 3.72809 0.389997 4.10088 0.573646C4.47276 0.757294 4.76128 1.009 4.96646 1.32857C5.17346 1.64824 5.27788 2.01316 5.27788 2.42341C5.27788 2.69774 5.22476 2.96731 5.12034 3.23202C5.015 3.49682 4.82998 3.7902 4.56527 4.11225C4.3033 4.43421 3.93509 4.82422 3.45971 5.2822L2.19661 6.56673V6.61684H5.38871V7.72597H0.364703ZM8.77682 7.86546C8.18787 7.86546 7.68226 7.71644 7.26001 7.4183C6.8405 7.11768 6.51717 6.6848 6.29093 6.11947C6.06652 5.55176 5.95386 4.86837 5.95386 4.06929C5.95661 3.27021 6.07018 2.59039 6.29459 2.02983C6.52083 1.46698 6.84416 1.03758 7.26367 0.741814C7.68592 0.446053 8.19061 0.298126 8.77682 0.298126C9.36395 0.298126 9.86865 0.446053 10.2909 0.741814C10.7132 1.03758 11.0365 1.46698 11.26 2.02983C11.4871 2.59277 11.5998 3.27259 11.5998 4.06929C11.5998 4.87075 11.4871 5.55534 11.26 6.12304C11.0365 6.68837 10.7132 7.12006 10.2909 7.4183C9.87048 7.71644 9.3667 7.86546 8.77682 7.86546ZM8.77682 6.74562C9.2348 6.74562 9.5966 6.5202 9.86131 6.06937C10.1288 5.61616 10.2625 4.94943 10.2625 4.06929C10.2625 3.48729 10.2011 2.99827 10.0793 2.6023C9.95841 2.20643 9.78621 1.90819 9.56455 1.70787C9.34289 1.50508 9.08001 1.40377 8.77682 1.40377C8.3216 1.40377 7.96163 1.63038 7.69692 2.0835C7.43221 2.53434 7.29848 3.1963 7.29573 4.06929C7.2939 4.65367 7.3516 5.14508 7.47159 5.54343C7.5925 5.94178 7.7647 6.2423 7.98636 6.4451C8.20802 6.64541 8.47181 6.74562 8.77682 6.74562ZM12.2346 7.72597V6.76705L14.7791 4.27327C15.0218 4.02752 15.2251 3.80935 15.3873 3.61846C15.5494 3.42767 15.6712 3.24283 15.7518 3.06394C15.8333 2.88496 15.8736 2.69417 15.8736 2.49147C15.8736 2.2601 15.8214 2.06207 15.7161 1.89747C15.6117 1.73049 15.467 1.60171 15.2829 1.51103C15.0997 1.42044 14.8908 1.37511 14.6573 1.37511C14.4164 1.37511 14.2048 1.42521 14.0234 1.52541C13.843 1.62314 13.7019 1.76274 13.6021 1.944C13.5041 2.12527 13.4546 2.34116 13.4546 2.59158H12.1915C12.1915 2.12646 12.2977 1.72216 12.5103 1.37868C12.7228 1.03519 13.0149 0.769201 13.3868 0.580789C13.7614 0.392377 14.191 0.298126 14.6747 0.298126C15.1665 0.298126 15.5979 0.389997 15.9698 0.573646C16.3426 0.757294 16.6311 1.009 16.8363 1.32857C17.0433 1.64824 17.1477 2.01316 17.1477 2.42341C17.1477 2.69774 17.0946 2.96731 16.9902 3.23202C16.8849 3.49682 16.6998 3.7902 16.4351 4.11225C16.1732 4.43421 15.804 4.82422 15.3296 5.2822L14.0665 6.56673V6.61684H17.2586V7.72597H12.2346ZM17.9382 7.72597V6.76705L20.4827 4.27327C20.7255 4.02752 20.9288 3.80935 21.0909 3.61846C21.253 3.42767 21.3749 3.24283 21.4555 3.06394C21.537 2.88496 21.5773 2.69417 21.5773 2.49147C21.5773 2.2601 21.5251 2.06207 21.4197 1.89747C21.3153 1.73049 21.1706 1.60171 20.9865 1.51103C20.8033 1.42044 20.5945 1.37511 20.3609 1.37511C20.12 1.37511 19.9084 1.42521 19.7271 1.52541C19.5466 1.62314 19.4056 1.76274 19.3057 1.944C19.2077 2.12527 19.1583 2.34116 19.1583 2.59158H17.8952C17.8952 2.12646 18.0014 1.72216 18.2139 1.37868C18.4264 1.03519 18.7186 0.769201 19.0905 0.580789C19.4651 0.392377 19.8947 0.298126 20.3783 0.298126C20.8702 0.298126 21.3016 0.389997 21.6735 0.573646C22.0463 0.757294 22.3348 1.009 22.54 1.32857C22.747 1.64824 22.8514 2.01316 22.8514 2.42341C22.8514 2.69774 22.7983 2.96731 22.6938 3.23202C22.5885 3.49682 22.4035 3.7902 22.1388 4.11225C21.8768 4.43421 21.5077 4.82422 21.0332 5.2822L19.7701 6.56673V6.61684H22.9622V7.72597H17.9382Z" fill="url(#paint0_linear_1_46)"/>
<defs>
<linearGradient id="paint0_linear_1_46" x1="11.6291" y1="-5.09739" x2="11.6291" y2="13.2217" gradientUnits="userSpaceOnUse">
<stop stop-color="#D0ECD1"/>
<stop offset="1" stop-color="#3C5268"/>
</linearGradient>
</defs>
</svg>
